# xmcd
#
# Track frame offsets:
#  150
#  13454
#  31290
#  48586
#  60830
#  72708
#  91747
#  110456
#  128383
#  142884
#  160826
#  175948
#  192831
#  210722
#  224139
#  235502
#
# Disc length: 3341 seconds
#
# Revision: 0
# Processed by: cddbd v1.5.1PL2 Copyright (c) Steve Scherf et al.
# Submitted via: Collectorz.com_Music_Collector 6.11
#
DISCID=df0d0b10
DTITLE=Various Artist - CDX Volume 400
DYEAR=1900
DGENRE=Country
TTITLE0=Sugarland - Down In Mississippi (Up To No Good)
TTITLE1=Dierks Bentley - Every Mile A Memory
TTITLE2=Tracy Lawrence - Find Out Who Your Friends Are
TTITLE3=Johnny Cash - God's Gonna Cut You Down
TTITLE4=Morrison, Van - Half As Much
TTITLE5=Radney Foster - Half Of My Mistakes
TTITLE6=Johnny Cash - Like The 309
TTITLE7=Lonestar - Mountains
TTITLE8=Conlee, John - Pass It On
TTITLE9=Harris, Rushlow - That's So You
TTITLE10=Lee, Mike - A First Class Fool
TTITLE11=Stevens, Rollie - Beer Drinking Women
TTITLE12=Spak, David - She Does
TTITLE13=Flowers, Floyd - Since You Moved Out I Moved Her In
TTITLE14=Jones, Buck - You Only Call Me When You're Drunk
TTITLE15=Young, Chris - Drinkin' Me Lonely
EXTD=
EXTT0=
EXTT1=
EXTT2=
EXTT3=
EXTT4=
EXTT5=
EXTT6=
EXTT7=
EXTT8=
EXTT9=
EXTT10=
EXTT11=
EXTT12=
EXTT13=
EXTT14=
EXTT15=
PLAYORDER=
